# xmcd
#
# Track frame offsets:
#	150
#	37552
#	55840
#	82612
#	105890
#	126675
#	144790
#	162340
#	202290
#	229967
#	265567
#
# Disc length: 3732 seconds
#
# Revision: 1
# Processed by: cddbd v1.5.2PL0 Copyright (c) Steve Scherf et al.
# Submitted via: audiograbber 1.83.01
#
DISCID=850e920b
DTITLE=Burning Plague - BURNING PLAGUE - 2
DYEAR=1995
DGENRE=Bluesrock
TTITLE0=23 Years Ago
TTITLE1=A38
TTITLE2=I Packed Up My Clothes
TTITLE3=The Touch
TTITLE4=Have You Ever Loved A Woman
TTITLE5=Let's Have Some Blues
TTITLE6=Stop, Look And Listen
TTITLE7=Early Morning Call
TTITLE8=The Only One Guilty Is You
TTITLE9=Good Lookin' Woman
TTITLE10=Bottleneck Blues
EXTD=
EXTT0=
EXTT1=
EXTT2=
EXTT3=
EXTT4=
EXTT5=
EXTT6=
EXTT7=
EXTT8=
EXTT9=
EXTT10=
PLAYORDER=
